<?xml version="1.0" encoding="UTF-8"?><svg id="Layer_1" xmlns="http://www.w3.org/2000/svg" viewBox="0 0 1346.45 261.15"><defs><style>.cls-1{fill:#635994;}.cls-1,.cls-2,.cls-3,.cls-4,.cls-5,.cls-6,.cls-7,.cls-8{stroke-width:0px;}.cls-3{fill:#321b41;}.cls-4{fill:#44911b;}.cls-5{fill:#ff6723;}.cls-6{fill:#d3d3d3;}.cls-7{fill:#f4f4f4;}.cls-8{fill:#86d72f;}</style></defs><g id="Bento"><path class="cls-3" d="m285.29,100.78v3.96L153.42,29.12c-2.14-1.07-4.71-11.77-6.84,0L14.71,104.73v-3.96H.05v58.5c0,2.78,1.39,5.45,4.28,6.95l132.73,65.24c8.13,3.96,17.75,3.96,25.88,0l132.73-65.24c2.89-1.39,4.28-4.17,4.28-6.95v-58.5h-14.65Z"/><path class="cls-1" d="m4.33,94.25L138.77,28.26c7.06-3.53,15.4-3.53,22.46,0l134.44,65.99c5.78,2.78,5.78,11.02,0,13.8l-132.73,65.24c-8.13,3.96-17.75,3.96-25.88,0L4.33,108.05c-5.78-2.78-5.78-11.02,0-13.8Zm91.12-29.63c-2.14,1.07-2.14,4.06,0,5.13l49.3,24.28c2.99,1.5,6.63,1.5,9.63,0l49.3-24.28c2.14-1.07,2.14-4.06,0-5.13l-49.95-24.49c-2.67-1.39-5.78-1.39-8.34-.11l-49.95,24.6Zm118.72,11.23l-117.22,57.33c-2.14,1.07-2.14,4.06,0,5.13l49.3,24.28c2.99,1.5,6.63,1.5,9.63,0l116.58-57.01c2.14-1.07,2.14-4.06,0-5.13l-49.95-24.6c-2.67-1.28-5.78-1.28-8.34,0ZM27.54,99.49c-2.14,1.07-2.14,4.06,0,5.13l49.3,24.28c2.99,1.5,6.63,1.5,9.63,0l49.3-24.28c2.14-1.07,2.14-4.06,0-5.13l-49.95-24.6c-2.67-1.28-5.78-1.28-8.45,0l-49.84,24.6Z"/><path class="cls-4" d="m206.79,50.08c0-.43,0-.96-.11-1.39-.86-11.23-9.84-20.21-20.96-20.96h-.43c-6.95-.32-13.37-3.85-17.65-9.3-4.17-5.24-10.48-8.56-17.65-8.56s-13.58,3.32-17.65,8.56c-4.39,5.45-10.7,8.98-17.65,9.3h-.43c-11.23.64-20.21,9.73-21.07,20.86,0,.21-.03.45-.05.7s-.05.48-.05.7c0,5.1,1.2,9.91,3.34,14.17.04.07.07.14.11.21.41.8.85,1.58,1.32,2.33,1.74,2.79,3.9,5.29,6.38,7.4l13.92,6.85c2.13.45,4.33.69,6.59.69h50.27c1.85.01,3.66-.13,5.42-.43l16.32-8.04c2.05-1.91,3.84-4.09,5.32-6.49.45-.72.87-1.47,1.26-2.23,2.21-4.32,3.45-9.2,3.45-14.37Z"/><path class="cls-8" d="m163.86,45.37c-2.3.61-4.47,1.52-6.48,2.68-4.49,2.67-10.16,2.67-14.65,0-.27-.16-.54-.32-.81-.47-2.1-1.15-4.38-2-6.77-2.5-2.31-.49-4.72-.65-7.18-.45-9.26.63-17.24,6.37-21.1,14.38-.05.11-.1.22-.16.33-1.07,2.29-1.8,4.76-2.13,7.35-.06.49-.11.98-.14,1.47-.15,2.12-.04,4.19.3,6.17l40.03,19.71c2.99,1.5,6.63,1.5,9.63,0l41.07-20.22c.27-1.83.35-3.72.21-5.66-.03-.49-.08-.98-.14-1.47-.32-2.47-1-4.83-1.98-7.04-3.74-8.35-11.89-14.37-21.4-15.02-2.76-.22-5.41.03-7.91.65-.13.03-.25.06-.37.1Z"/><path class="cls-5" d="m69.93,85.9c.35,6.85,3.3,13.01,7.87,17.52,4.79,4.72,11.36,7.63,18.62,7.63,5.31,0,10.06,2.58,13.05,6.54l-23,11.33c-2.99,1.5-6.63,1.5-9.63,0l-32.71-16.11c-1.62-2.98-3-6.12-4.1-9.38-.98-2.9-1.73-5.9-2.25-8.98-.55-3.23-.83-6.54-.83-9.92,0-1.18.11-2.25.32-3.32-9.3-5.56-15.61-15.72-15.61-27.27v-9.73c0-7.17,5.78-13.16,13.05-13.16s13.16,5.88,13.16,13.16v9.73c0,2.99,2.46,5.45,5.45,5.45s5.45-2.46,5.45-5.45v-9.73c0-7.17,5.99-13.16,13.26-13.16s13.16,5.88,13.16,13.16v9.73c0,8.1-3.1,15.51-8.16,21.14-.13.14-.26.28-.39.42-.34.36-.68.72-1.04,1.06-1.82,1.78-3.84,3.34-6.03,4.65.03.13.05.27.08.41.16.96.25,1.97.25,2.91,0,.46.01.92.04,1.38Z"/><path class="cls-7" d="m272.46,100.46l-25.78-12.62c-56.79-15.29-108.02,10.91-137.54,56.58l37.11,18.29c2.99,1.5,6.63,1.5,9.63,0l116.58-57.01c2.14-1.18,2.14-4.17,0-5.24Z"/><path class="cls-6" d="m200.27,91.47l-3.85,4.92c-.86,1.07-.64,2.67.43,3.53,1.07.86,2.67.64,3.53-.43l3.85-4.92c.86-1.07.64-2.67-.43-3.53s-2.67-.64-3.53.43Z"/><path class="cls-6" d="m228.29,101.42l-6.1-1.39c-1.28-.32-2.14-1.71-1.93-2.99.32-1.39,1.6-2.25,2.99-1.93l6.1,1.39c1.39.32,2.25,1.6,1.93,2.99-.32,1.39-1.6,2.25-2.99,1.93Z"/><path class="cls-6" d="m190.43,110.94l6.2.96c1.39.21,2.35,1.5,2.14,2.89-.21,1.39-1.5,2.35-2.89,2.14l-6.2-.96c-1.39-.21-2.35-1.5-2.14-2.89.21-1.39,1.5-2.35,2.89-2.14Z"/><path class="cls-6" d="m187.22,128.8l-2.57,5.67c-.53,1.28,0,2.78,1.28,3.32,1.28.53,2.78,0,3.32-1.28l2.57-5.67c.53-1.28,0-2.78-1.28-3.32-1.28-.53-2.67,0-3.32,1.28Z"/><path class="cls-6" d="m165.51,145.91l-6.1-1.39c-1.39-.32-2.25-1.71-1.93-2.99.32-1.39,1.6-2.25,2.99-1.93l6.1,1.39c1.39.32,2.25,1.6,1.93,2.99-.32,1.39-1.6,2.25-2.99,1.93Z"/><path class="cls-6" d="m226.47,117.46l-4.39,4.39c-.96.96-2.57.96-3.53,0s-.96-2.57,0-3.53l4.39-4.39c.96-.96,2.57-.96,3.53,0s.96,2.57,0,3.53Z"/><path class="cls-6" d="m172.03,107.19l4.39-4.39c.96-.96.96-2.57,0-3.53-.96-.96-2.57-.96-3.53,0l-4.39,4.39c-.96.96-.96,2.57,0,3.53.96.96,2.57.96,3.53,0Z"/><path class="cls-6" d="m252.46,100.88l5.03,3.74c1.07.86,1.28,2.46.32,3.64-.86,1.07-2.46,1.28-3.53.43l-4.92-3.85c-1.07-.86-1.28-2.46-.43-3.53s2.46-1.28,3.53-.43Z"/><path class="cls-6" d="m154.17,124.73l4.71-4.06c1.07-.86,1.18-2.46.32-3.53-.86-1.07-2.46-1.18-3.53-.32l-4.71,4.06c-1.07.86-1.18,2.46-.32,3.53.86,1.07,2.46,1.18,3.53.32Z"/><path class="cls-6" d="m132.25,143.13l-2.35-5.78c-.53-1.18,0-2.67,1.39-3.32,1.28-.53,2.78.11,3.32,1.39l2.35,5.78c.53,1.28-.11,2.78-1.39,3.32-1.28.53-2.78-.11-3.32-1.39Z"/></g><path class="cls-2" d="m331.84,192.1V43.9h55.46c10.86,0,19.86,1.79,27.02,5.37,7.16,3.58,12.51,8.3,16.05,14.16,3.54,5.86,5.31,12.25,5.31,19.18,0,8.5-2.34,15.87-7.02,22.12-4.68,6.25-11.7,10.52-21.06,12.8,6.06.94,11.39,3.09,15.99,6.43,4.6,3.35,8.2,7.43,10.8,12.27,2.6,4.84,3.89,10.01,3.89,15.52,0,5.04-.85,9.95-2.54,14.75-1.69,4.8-4.5,9.13-8.44,12.98-3.93,3.86-9.17,6.92-15.69,9.2-6.53,2.28-14.63,3.42-24.31,3.42h-55.46Zm18.41-132.4v50.5h36.34c9.2,0,16.54-2.26,22.01-6.78,5.47-4.52,8.2-10.92,8.2-19.18,0-7.71-2.65-13.73-7.96-18.05-5.31-4.33-12.65-6.49-22.01-6.49h-36.58Zm0,116.35h36.82c11.25,0,19.33-2.36,24.25-7.08,4.92-4.72,7.38-10.78,7.38-18.17s-2.68-13.47-8.02-18c-5.35-4.52-13.22-6.79-23.6-6.79h-36.82v50.03Z"/><path class="cls-2" d="m517.68,194.94c-9.75,0-18.47-2.5-26.14-7.49-7.67-4.99-13.73-11.94-18.17-20.83-4.45-8.89-6.67-19.12-6.67-30.68,0-12.35,2.2-22.97,6.61-31.86,4.4-8.89,10.44-15.71,18.11-20.47,7.67-4.76,16.42-7.14,26.25-7.14,8.57,0,15.89,1.73,21.95,5.19,6.06,3.46,10.93,8.14,14.63,14.04,3.7,5.9,6.27,12.57,7.73,20,1.46,7.43,1.87,15.12,1.24,23.07h-81.66v-11.33h69.5l-5.43,3.54c.24-4.64-.02-9.28-.77-13.92-.75-4.64-2.14-8.91-4.19-12.8-2.05-3.89-4.92-7.02-8.61-9.38-3.7-2.36-8.42-3.54-14.16-3.54-7.24,0-13.29,1.85-18.17,5.55-4.88,3.7-8.54,8.56-10.97,14.57-2.44,6.02-3.66,12.53-3.66,19.53v7.55c0,7.87,1.2,14.91,3.6,21.12,2.4,6.22,6,11.13,10.8,14.75,4.8,3.62,10.86,5.43,18.17,5.43s13.33-1.77,18.05-5.31c4.72-3.54,7.59-8.77,8.61-15.69h19.12c-1.18,7.47-3.85,13.91-8.02,19.29-4.17,5.39-9.48,9.54-15.93,12.45-6.45,2.91-13.73,4.37-21.83,4.37Z"/><path class="cls-2" d="m599.69,192.1v-112.81h15.81l2.6,25.96v86.85h-18.41Zm80.24,0v-66.32c0-10.78-2.58-18.98-7.73-24.6-5.15-5.62-12.17-8.44-21.06-8.44-6.77,0-12.63,1.85-17.58,5.55-4.96,3.7-8.77,8.99-11.45,15.87-2.67,6.88-4.01,15.09-4.01,24.6h-7.08c0-13.14,1.73-24.35,5.19-33.63,3.46-9.28,8.51-16.38,15.16-21.3,6.65-4.92,14.73-7.38,24.25-7.38,8.89,0,16.5,1.99,22.83,5.96,6.33,3.97,11.19,9.66,14.57,17.05,3.38,7.4,5.07,16.17,5.07,26.31v66.32h-18.17Z"/><path class="cls-2" d="m726.3,92.04v-12.74h71.98v12.74h-71.98Zm50.5,102.9c-6.14,0-11.64-1.18-16.52-3.54-4.88-2.36-8.73-5.9-11.56-10.62s-4.25-10.62-4.25-17.7V47.91h18.17v114.7c0,11.64,5.43,17.46,16.28,17.46,3.22,0,6.35-.35,9.38-1.06,3.03-.71,6.43-1.77,10.21-3.19l2.6,13.22c-4.01,1.73-8.01,3.15-11.98,4.25-3.97,1.1-8.08,1.65-12.33,1.65Z"/><path class="cls-2" d="m871.68,194.94c-10.15,0-19.17-2.24-27.08-6.73-7.91-4.48-14.14-11.13-18.7-19.94-4.56-8.81-6.84-19.67-6.84-32.57s2.28-23.85,6.84-32.63c4.56-8.77,10.8-15.4,18.7-19.88s16.93-6.73,27.08-6.73,19.06,2.24,26.96,6.73,14.12,11.11,18.64,19.88c4.52,8.77,6.78,19.65,6.78,32.63s-2.26,23.76-6.78,32.57c-4.53,8.81-10.74,15.46-18.64,19.94-7.91,4.48-16.89,6.73-26.96,6.73Zm-.47-16.05c7.32,0,13.53-1.75,18.64-5.25,5.11-3.5,8.99-8.48,11.62-14.93,2.63-6.45,3.95-14.12,3.95-23.01,0-13.45-2.79-24.05-8.38-31.8-5.59-7.75-13.89-11.62-24.9-11.62-7.4,0-13.63,1.75-18.7,5.25-5.07,3.5-8.93,8.5-11.56,14.99-2.64,6.49-3.95,14.22-3.95,23.19,0,13.29,2.81,23.82,8.44,31.56,5.62,7.75,13.9,11.62,24.84,11.62Z"/><path class="cls-2" d="m969.14,194.23c-4.01,0-7.32-1.26-9.91-3.78s-3.89-5.66-3.89-9.44,1.3-6.86,3.89-9.5c2.6-2.63,5.9-3.95,9.91-3.95s7.26,1.32,9.97,3.95c2.71,2.64,4.07,5.8,4.07,9.5s-1.36,6.92-4.07,9.44-6.04,3.78-9.97,3.78Zm-7.43-43.66l-2.36-106.2h19.59l-2.36,106.2h-14.87Z"/></svg>