<?xml version="1.0" encoding="UTF-8"?>
<svg id="Layer_1" data-name="Layer 1" xmlns="http://www.w3.org/2000/svg" viewBox="0 0 1034 291.31">
  <defs>
    <style>
      .cls-1 {
        fill: #635994;
      }

      .cls-1, .cls-2, .cls-3, .cls-4, .cls-5, .cls-6, .cls-7, .cls-8 {
        stroke-width: 0px;
      }

      .cls-2 {
        fill: #321b41;
      }

      .cls-3 {
        fill: #44911b;
      }

      .cls-4 {
        fill: #ff6723;
      }

      .cls-5 {
        fill: #fff;
      }

      .cls-6 {
        fill: #d3d3d3;
      }

      .cls-7 {
        fill: #f4f4f4;
      }

      .cls-8 {
        fill: #86d72f;
      }
    </style>
  </defs>
  <g id="Bento">
    <path class="cls-2" d="m285.29,112.93v3.96L153.42,41.27c-2.14-1.07-4.71-11.77-6.84,0L14.71,116.89v-3.96H.05v58.5c0,2.78,1.39,5.45,4.28,6.95l132.73,65.24c8.13,3.96,17.75,3.96,25.88,0l132.73-65.24c2.89-1.39,4.28-4.17,4.28-6.95v-58.5h-14.65Z"/>
    <path class="cls-1" d="m4.33,106.41L138.77,40.42c7.06-3.53,15.4-3.53,22.46,0l134.44,65.99c5.78,2.78,5.78,11.02,0,13.8l-132.73,65.24c-8.13,3.96-17.75,3.96-25.88,0L4.33,120.2c-5.78-2.78-5.78-11.02,0-13.8Zm91.12-29.63c-2.14,1.07-2.14,4.06,0,5.13l49.3,24.28c2.99,1.5,6.63,1.5,9.63,0l49.3-24.28c2.14-1.07,2.14-4.06,0-5.13l-49.95-24.49c-2.67-1.39-5.78-1.39-8.34-.11l-49.95,24.6Zm118.72,11.23l-117.22,57.33c-2.14,1.07-2.14,4.06,0,5.13l49.3,24.28c2.99,1.5,6.63,1.5,9.63,0l116.58-57.01c2.14-1.07,2.14-4.06,0-5.13l-49.95-24.6c-2.67-1.28-5.78-1.28-8.34,0ZM27.54,111.65c-2.14,1.07-2.14,4.06,0,5.13l49.3,24.28c2.99,1.5,6.63,1.5,9.63,0l49.3-24.28c2.14-1.07,2.14-4.06,0-5.13l-49.95-24.6c-2.67-1.28-5.78-1.28-8.45,0l-49.84,24.6Z"/>
    <path class="cls-3" d="m206.79,62.24c0-.43,0-.96-.11-1.39-.86-11.23-9.84-20.21-20.96-20.96h-.43c-6.95-.32-13.37-3.85-17.65-9.3-4.17-5.24-10.48-8.56-17.65-8.56s-13.58,3.32-17.65,8.56c-4.39,5.45-10.7,8.98-17.65,9.3h-.43c-11.23.64-20.21,9.73-21.07,20.86,0,.21-.03.45-.05.7s-.05.48-.05.7c0,5.1,1.2,9.91,3.34,14.17.04.07.07.14.11.21.41.8.85,1.58,1.32,2.33,1.74,2.79,3.9,5.29,6.38,7.4l13.92,6.85c2.13.45,4.33.69,6.59.69h50.27c1.85.01,3.66-.13,5.42-.43l16.32-8.04c2.05-1.91,3.84-4.09,5.32-6.49.45-.72.87-1.47,1.26-2.23,2.21-4.32,3.45-9.2,3.45-14.37Z"/>
    <path class="cls-8" d="m163.86,57.53c-2.3.61-4.47,1.52-6.48,2.68-4.49,2.67-10.16,2.67-14.65,0-.27-.16-.54-.32-.81-.47-2.1-1.15-4.38-2-6.77-2.5-2.31-.49-4.72-.65-7.18-.45-9.26.63-17.24,6.37-21.1,14.38-.05.11-.1.22-.16.33-1.07,2.29-1.8,4.76-2.13,7.35-.06.49-.11.98-.14,1.47-.15,2.12-.04,4.19.3,6.17l40.03,19.71c2.99,1.5,6.63,1.5,9.63,0l41.07-20.22c.27-1.83.35-3.72.21-5.66-.03-.49-.08-.98-.14-1.47-.32-2.47-1-4.83-1.98-7.04-3.74-8.35-11.89-14.37-21.4-15.02-2.76-.22-5.41.03-7.91.65-.13.03-.25.06-.37.1Z"/>
    <path class="cls-4" d="m69.93,98.05c.35,6.85,3.3,13.01,7.87,17.52,4.79,4.72,11.36,7.63,18.62,7.63,5.31,0,10.06,2.58,13.05,6.54l-23,11.33c-2.99,1.5-6.63,1.5-9.63,0l-32.71-16.11c-1.62-2.98-3-6.12-4.1-9.38-.98-2.9-1.73-5.9-2.25-8.98-.55-3.23-.83-6.54-.83-9.92,0-1.18.11-2.25.32-3.32-9.3-5.56-15.61-15.72-15.61-27.27v-9.73c0-7.17,5.78-13.16,13.05-13.16s13.16,5.88,13.16,13.16v9.73c0,2.99,2.46,5.45,5.45,5.45s5.45-2.46,5.45-5.45v-9.73c0-7.17,5.99-13.16,13.26-13.16s13.16,5.88,13.16,13.16v9.73c0,8.1-3.1,15.51-8.16,21.14-.13.14-.26.28-.39.42-.34.36-.68.72-1.04,1.06-1.82,1.78-3.84,3.34-6.03,4.65.03.13.05.27.08.41.16.96.25,1.97.25,2.91,0,.46.01.92.04,1.38Z"/>
    <path class="cls-7" d="m272.46,112.61l-25.78-12.62c-56.79-15.29-108.02,10.91-137.54,56.58l37.11,18.29c2.99,1.5,6.63,1.5,9.63,0l116.58-57.01c2.14-1.18,2.14-4.17,0-5.24Z"/>
    <path class="cls-6" d="m200.27,103.63l-3.85,4.92c-.86,1.07-.64,2.67.43,3.53,1.07.86,2.67.64,3.53-.43l3.85-4.92c.86-1.07.64-2.67-.43-3.53s-2.67-.64-3.53.43Z"/>
    <path class="cls-6" d="m228.29,113.57l-6.1-1.39c-1.28-.32-2.14-1.71-1.93-2.99.32-1.39,1.6-2.25,2.99-1.93l6.1,1.39c1.39.32,2.25,1.6,1.93,2.99-.32,1.39-1.6,2.25-2.99,1.93Z"/>
    <path class="cls-6" d="m190.43,123.09l6.2.96c1.39.21,2.35,1.5,2.14,2.89-.21,1.39-1.5,2.35-2.89,2.14l-6.2-.96c-1.39-.21-2.35-1.5-2.14-2.89.21-1.39,1.5-2.35,2.89-2.14Z"/>
    <path class="cls-6" d="m187.22,140.95l-2.57,5.67c-.53,1.28,0,2.78,1.28,3.32,1.28.53,2.78,0,3.32-1.28l2.57-5.67c.53-1.28,0-2.78-1.28-3.32-1.28-.53-2.67,0-3.32,1.28Z"/>
    <path class="cls-6" d="m165.51,158.07l-6.1-1.39c-1.39-.32-2.25-1.71-1.93-2.99.32-1.39,1.6-2.25,2.99-1.93l6.1,1.39c1.39.32,2.25,1.6,1.93,2.99-.32,1.39-1.6,2.25-2.99,1.93Z"/>
    <path class="cls-6" d="m226.47,129.62l-4.39,4.39c-.96.96-2.57.96-3.53,0s-.96-2.57,0-3.53l4.39-4.39c.96-.96,2.57-.96,3.53,0s.96,2.57,0,3.53Z"/>
    <path class="cls-6" d="m172.03,119.35l4.39-4.39c.96-.96.96-2.57,0-3.53-.96-.96-2.57-.96-3.53,0l-4.39,4.39c-.96.96-.96,2.57,0,3.53.96.96,2.57.96,3.53,0Z"/>
    <path class="cls-6" d="m252.46,113.04l5.03,3.74c1.07.86,1.28,2.46.32,3.64-.86,1.07-2.46,1.28-3.53.43l-4.92-3.85c-1.07-.86-1.28-2.46-.43-3.53s2.46-1.28,3.53-.43Z"/>
    <path class="cls-6" d="m154.17,136.89l4.71-4.06c1.07-.86,1.18-2.46.32-3.53-.86-1.07-2.46-1.18-3.53-.32l-4.71,4.06c-1.07.86-1.18,2.46-.32,3.53.86,1.07,2.46,1.18,3.53.32Z"/>
    <path class="cls-6" d="m132.25,155.28l-2.35-5.78c-.53-1.18,0-2.67,1.39-3.32,1.28-.53,2.78.11,3.32,1.39l2.35,5.78c.53,1.28-.11,2.78-1.39,3.32-1.28.53-2.78-.11-3.32-1.39Z"/>
  </g>
  <g>
    <path class="cls-5" d="m451.22,162.5c0,5.08-.65,9.77-1.94,14.06-1.29,4.29-3.11,8.15-5.44,11.56-2.33,3.42-5.15,6.42-8.44,9-3.29,2.58-7,4.75-11.12,6.5s-8.54,3.06-13.25,3.94c-4.71.88-10.11,1.31-16.19,1.31h-42.25c-1.92,0-3.73-.64-5.44-1.94-1.71-1.29-2.56-3.56-2.56-6.81V55.88c0-3.25.85-5.52,2.56-6.81,1.71-1.29,3.52-1.94,5.44-1.94h36.75c9.67,0,17.58.92,23.75,2.75,6.17,1.83,11.31,4.5,15.44,8s7.23,7.79,9.31,12.88c2.08,5.08,3.12,10.83,3.12,17.25,0,3.83-.46,7.5-1.38,11-.92,3.5-2.27,6.73-4.06,9.69-1.79,2.96-4.04,5.61-6.75,7.94-2.71,2.33-5.81,4.25-9.31,5.75,4.42.83,8.54,2.36,12.38,4.56,3.83,2.21,7.19,5.02,10.06,8.44,2.88,3.42,5.14,7.42,6.81,12,1.67,4.58,2.5,9.62,2.5,15.12Zm-32.38-72.38c0-3.92-.54-7.46-1.62-10.62-1.08-3.17-2.79-5.85-5.11-8.06-2.33-2.21-5.36-3.89-9.1-5.06-3.74-1.17-8.69-1.75-14.84-1.75h-22.2v52.38h24.44c5.57,0,10.06-.73,13.47-2.19,3.41-1.46,6.23-3.42,8.48-5.88,2.24-2.46,3.89-5.33,4.93-8.62,1.04-3.29,1.56-6.69,1.56-10.19Zm9.75,73.62c0-4.83-.77-9.08-2.31-12.75-1.54-3.67-3.78-6.75-6.74-9.25s-6.65-4.39-11.1-5.69c-4.45-1.29-10.04-1.94-16.78-1.94h-25.7v57h31.19c4.91,0,9.19-.58,12.85-1.75,3.66-1.17,6.88-2.89,9.67-5.19,2.79-2.29,4.97-5.14,6.55-8.56,1.58-3.42,2.37-7.38,2.37-11.88Z"/>
    <path class="cls-5" d="m577.47,144.62c0,3.25-.82,5.56-2.45,6.94s-3.49,2.06-5.59,2.06h-74.09c0,6.25.63,11.88,1.88,16.88s3.35,9.29,6.28,12.88c2.93,3.58,6.74,6.33,11.43,8.25,4.69,1.92,10.43,2.88,17.21,2.88,5.36,0,10.13-.44,14.32-1.31s7.81-1.85,10.87-2.94c3.06-1.08,5.57-2.06,7.54-2.94s3.46-1.31,4.46-1.31c.59,0,1.11.15,1.57.44.46.29.82.73,1.07,1.31.25.58.44,1.4.56,2.44.12,1.04.19,2.31.19,3.81,0,1.08-.04,2.02-.12,2.81-.08.79-.19,1.5-.31,2.12s-.33,1.19-.62,1.69c-.29.5-.67.98-1.12,1.44s-1.81,1.21-4.06,2.25c-2.25,1.04-5.17,2.06-8.75,3.06-3.58,1-7.73,1.89-12.44,2.69-4.71.79-9.73,1.19-15.06,1.19-9.25,0-17.36-1.29-24.31-3.88-6.96-2.58-12.81-6.42-17.56-11.5-4.75-5.08-8.33-11.46-10.75-19.12-2.42-7.67-3.62-16.58-3.62-26.75s1.25-18.35,3.75-26.06c2.5-7.71,6.1-14.25,10.81-19.62,4.71-5.38,10.39-9.5,17.06-12.38,6.67-2.88,14.12-4.31,22.38-4.31,8.83,0,16.35,1.42,22.56,4.25,6.21,2.83,11.31,6.65,15.31,11.44,4,4.79,6.94,10.42,8.81,16.88,1.88,6.46,2.81,13.36,2.81,20.69v3.75Zm-20.75-6.12c.25-10.83-2.16-19.33-7.23-25.5-5.07-6.17-12.6-9.25-22.57-9.25-5.12,0-9.6.96-13.46,2.88-3.86,1.92-7.09,4.46-9.69,7.62-2.6,3.17-4.61,6.86-6.04,11.06-1.43,4.21-2.22,8.61-2.39,13.19h61.38Z"/>
    <path class="cls-5" d="m705.72,205.75c0,.67-.17,1.23-.5,1.69-.33.46-.88.86-1.62,1.19s-1.79.58-3.12.75c-1.33.17-3,.25-5,.25s-3.79-.08-5.12-.25c-1.33-.17-2.38-.42-3.12-.75s-1.29-.73-1.62-1.19c-.33-.46-.5-1.02-.5-1.69v-65.88c0-6.42-.5-11.58-1.5-15.5-1-3.92-2.46-7.29-4.38-10.12-1.92-2.83-4.4-5-7.44-6.5-3.04-1.5-6.56-2.25-10.56-2.25-5.17,0-10.33,1.83-15.5,5.5-5.17,3.67-10.58,9.04-16.25,16.12v78.62c0,.67-.17,1.23-.5,1.69-.33.46-.88.86-1.62,1.19s-1.79.58-3.12.75c-1.33.17-3.04.25-5.12.25s-3.67-.08-5-.25c-1.33-.17-2.4-.42-3.19-.75-.79-.33-1.33-.73-1.62-1.19-.29-.46-.44-1.02-.44-1.69v-112.5c0-.67.12-1.23.38-1.69.25-.46.75-.88,1.5-1.25s1.71-.62,2.88-.75c1.17-.12,2.71-.19,4.62-.19s3.35.06,4.56.19c1.21.12,2.14.38,2.81.75.67.38,1.14.79,1.44,1.25.29.46.44,1.02.44,1.69v14.88c6.33-7.08,12.64-12.27,18.94-15.56,6.29-3.29,12.64-4.94,19.06-4.94,7.5,0,13.81,1.27,18.94,3.81,5.12,2.54,9.27,5.94,12.44,10.19,3.17,4.25,5.44,9.23,6.81,14.94,1.38,5.71,2.06,12.56,2.06,20.56v68.62Z"/>
    <path class="cls-5" d="m799.47,197.5c0,2.42-.17,4.33-.5,5.75-.33,1.42-.83,2.46-1.5,3.12s-1.67,1.29-3,1.88c-1.33.58-2.86,1.06-4.56,1.44-1.71.38-3.52.69-5.44.94-1.92.25-3.83.38-5.75.38-5.83,0-10.83-.77-15-2.31-4.17-1.54-7.58-3.88-10.25-7-2.67-3.12-4.61-7.08-5.81-11.88-1.21-4.79-1.81-10.44-1.81-16.94v-65.75h-15.75c-1.25,0-2.25-.67-3-2-.75-1.33-1.12-3.5-1.12-6.5,0-1.58.1-2.92.31-4,.21-1.08.48-1.98.81-2.69.33-.71.77-1.21,1.31-1.5.54-.29,1.14-.44,1.81-.44h15.62v-26.75c0-.58.14-1.12.44-1.62.29-.5.83-.94,1.62-1.31.79-.38,1.85-.64,3.19-.81,1.33-.17,3-.25,5-.25s3.79.08,5.12.25c1.33.17,2.38.44,3.12.81s1.29.81,1.62,1.31c.33.5.5,1.04.5,1.62v26.75h28.88c.67,0,1.25.15,1.75.44.5.29.94.79,1.31,1.5.38.71.64,1.61.81,2.69.17,1.08.25,2.42.25,4,0,3-.38,5.17-1.12,6.5-.75,1.33-1.75,2-3,2h-28.88v62.75c0,7.75,1.14,13.61,3.44,17.56,2.29,3.96,6.39,5.94,12.31,5.94,1.92,0,3.62-.19,5.12-.56s2.83-.77,4-1.19c1.17-.42,2.17-.81,3-1.19.83-.38,1.58-.56,2.25-.56.42,0,.81.11,1.19.31.38.21.67.61.88,1.19.21.58.39,1.38.56,2.38.17,1,.25,2.25.25,3.75Z"/>
    <path class="cls-5" d="m928.85,148.25c0,9.17-1.21,17.61-3.62,25.31-2.42,7.71-6.02,14.36-10.81,19.94-4.79,5.58-10.79,9.94-18,13.06-7.21,3.12-15.56,4.69-25.06,4.69s-17.31-1.38-24.19-4.12-12.61-6.75-17.19-12c-4.58-5.25-8-11.62-10.25-19.12s-3.38-16-3.38-25.5,1.19-17.6,3.56-25.31c2.38-7.71,5.96-14.35,10.75-19.94,4.79-5.58,10.77-9.92,17.94-13,7.17-3.08,15.54-4.62,25.12-4.62s17.31,1.38,24.19,4.12,12.6,6.75,17.19,12c4.58,5.25,8.02,11.62,10.31,19.12,2.29,7.5,3.44,15.96,3.44,25.38Zm-21.38,1.38c0-6.08-.57-11.83-1.7-17.25-1.14-5.42-3.01-10.17-5.61-14.25-2.61-4.08-6.14-7.31-10.6-9.69s-10.01-3.56-16.65-3.56c-6.14,0-11.42,1.08-15.83,3.25-4.41,2.17-8.05,5.23-10.91,9.19-2.86,3.96-4.98,8.65-6.37,14.06-1.39,5.42-2.08,11.33-2.08,17.75s.57,11.96,1.7,17.38c1.13,5.42,3.03,10.15,5.68,14.19,2.65,4.04,6.2,7.25,10.66,9.62s10.01,3.56,16.65,3.56c6.05,0,11.31-1.08,15.77-3.25,4.46-2.17,8.11-5.21,10.97-9.12,2.86-3.92,4.96-8.58,6.31-14,1.35-5.42,2.02-11.38,2.02-17.88Z"/>
    <path class="cls-5" d="m999.6,195.88c0,2.75-.19,5.02-.56,6.81-.38,1.79-1.08,3.25-2.12,4.38-1.04,1.12-2.4,1.92-4.06,2.38-1.67.46-3.79.69-6.38.69s-4.73-.23-6.44-.69c-1.71-.46-3.06-1.25-4.06-2.38s-1.69-2.58-2.06-4.38c-.38-1.79-.56-4.06-.56-6.81s.19-5.06.56-6.94,1.06-3.33,2.06-4.38c1-1.04,2.35-1.79,4.06-2.25,1.71-.46,3.85-.69,6.44-.69s4.71.23,6.38.69c1.67.46,3.02,1.21,4.06,2.25,1.04,1.04,1.75,2.5,2.12,4.38s.56,4.19.56,6.94Zm-3.88-33.62c0,.67-.15,1.25-.44,1.75-.29.5-.81.92-1.56,1.25-.75.33-1.71.58-2.88.75-1.17.17-2.62.25-4.38.25s-3.21-.08-4.38-.25c-1.17-.17-2.12-.42-2.88-.75-.75-.33-1.27-.75-1.56-1.25-.29-.5-.44-1.08-.44-1.75l-2.12-119.25c-.08-1,.04-1.88.38-2.62.33-.75.94-1.38,1.81-1.88s2.04-.85,3.5-1.06c1.46-.21,3.35-.31,5.69-.31s4.1.12,5.56.38c1.46.25,2.62.62,3.5,1.12s1.48,1.11,1.81,1.81c.33.71.5,1.56.5,2.56l-2.12,119.25Z"/>
  </g>
</svg>