<?xml version="1.0" encoding="UTF-8"?><svg id="Layer_2" xmlns="http://www.w3.org/2000/svg" xmlns:xlink="http://www.w3.org/1999/xlink" viewBox="0 0 313.8 475.5"><defs><style>.cls-1{clip-path:url(#clippath-6);}.cls-2{clip-path:url(#clippath-7);}.cls-3{clip-path:url(#clippath-4);}.cls-4{fill:#ee5a63;}.cls-5{clip-path:url(#clippath-9);}.cls-6{clip-path:url(#clippath-10);}.cls-7{fill:#f194a0;}.cls-8{clip-path:url(#clippath-11);}.cls-9,.cls-10,.cls-11,.cls-12{fill:none;}.cls-13{fill:#d5c0be;}.cls-14{fill:#fff157;}.cls-15{clip-path:url(#clippath-1);}.cls-16,.cls-17{isolation:isolate;}.cls-18{clip-path:url(#clippath-5);}.cls-19{clip-path:url(#clippath-8);}.cls-20{clip-path:url(#clippath-3);}.cls-21{fill:#ec7791;}.cls-22{mix-blend-mode:multiply;}.cls-17{opacity:.5;}.cls-10{stroke:#e5bb12;}.cls-10,.cls-11,.cls-12{stroke-miterlimit:10;stroke-width:2.5px;}.cls-23{clip-path:url(#clippath-2);}.cls-24{fill:#fefefe;}.cls-25{fill:#ffd500;}.cls-11{stroke:#f7c800;}.cls-12{stroke:#edc212;}.cls-26{clip-path:url(#clippath);}.cls-27{fill:#102d16;}</style><clipPath id="clippath"><rect class="cls-9" width="290.14" height="248.25"/></clipPath><clipPath id="clippath-1"><rect class="cls-9" width="290.14" height="248.25"/></clipPath><clipPath id="clippath-2"><rect class="cls-9" width="290.14" height="248.25"/></clipPath><clipPath id="clippath-3"><rect class="cls-9" x=".01" y="0" width="290.15" height="248.23"/></clipPath><clipPath id="clippath-4"><rect class="cls-9" x="61.7" y="88.6" width="227.43" height="154.16"/></clipPath><clipPath id="clippath-5"><rect class="cls-9" x="20" y="226" width="293.8" height="249.5"/></clipPath><clipPath id="clippath-6"><rect class="cls-9" x="20" y="226" width="293.8" height="249.5"/></clipPath><clipPath id="clippath-7"><rect class="cls-9" x="20" y="226" width="293.8" height="249.5"/></clipPath><clipPath id="clippath-8"><rect class="cls-9" x="20.02" y="226.06" width="293.67" height="249.3"/></clipPath><clipPath id="clippath-9"><rect class="cls-9" x="85.6" y="319.9" width="227.9" height="153.95"/></clipPath><clipPath id="clippath-10"><rect class="cls-9" x="31.06" y="322.7" width="90.16" height="95.62"/></clipPath><clipPath id="clippath-11"><rect class="cls-9" x="188.66" y="246.96" width="93.87" height="67"/></clipPath></defs><g id="Layer_1-2"><g class="cls-26"><g class="cls-15"><g class="cls-23"><g class="cls-16"><g class="cls-20"><path class="cls-24" d="M86.01,246.3c2.11.14,4.1,1.34,6.21,1.15,2.94-.26,4.97-3.04,7.69-4.2,3.03-1.29,6.55-.42,9.79-1.04,6.88-1.31,10.79-8.7,17.01-11.92,5.12-2.66,11.42-2.27,16.52-4.97,3.68-1.95,6.37-5.31,9.41-8.16,4.88-4.57,10.76-7.91,16.59-11.2,7.84-4.42,15.67-8.85,23.51-13.28,2.14-1.21,4.28-2.42,6.5-3.47,2.8-1.33,5.78-2.44,8.12-4.47,2.78-2.41,4.57-6.05,7.91-7.6,3.69-1.71,8.42-.44,11.75-2.77,3.15-2.21,3.88-6.93,7.21-8.88,2.41-1.42,5.88-1.17,7.48-3.46.96-1.38.86-3.23,1.5-4.78.71-1.7,2.24-2.89,3.69-4.03,6.95-5.43,13.51-11.36,19.62-17.72,8.15-8.49,15.57-17.86,20.49-28.54,1.62-3.52,2.98-7.24,3.14-11.1.21-4.99-1.58-9.83-3.68-14.36-12.32-26.57-35.73-46.61-61.25-60.98-6.33-3.56-13.1-6.9-20.36-7.05-3.8-.08-7.56.72-11.27,1.55-20.24,4.53-40.55,10.1-58.52,20.46-3.16,1.82-6.25,3.79-9,6.18-2.14,1.85-4.06,3.95-6.33,5.64-4.31,3.23-9.57,4.82-14.49,7.02-16.8,7.52-29.44,22.09-45.51,31.07-3.14,1.76-6.42,3.3-9.35,5.38-2.91,2.07-5.43,4.63-7.93,7.18-7.14,7.28-14.29,14.56-21.43,21.84-4.95,5.05-10.14,10.54-11.4,17.5-1.12,6.24,1.13,12.53,3.36,18.47,5.45,14.57,10.98,29.29,19.57,42.27,4.63,7,10.12,13.45,14.12,20.83,4.3,7.94,6.84,20.55,14.68,25.94,2.99,2.06,7.45,2.99,10.98,3.37,4.89.52,9.06-2.2,13.72-1.88h-.05Z"/><path class="cls-25" d="M280.26,103.21c3.6-3.51,7.3-7.32,8.58-12.07,1.55-5.78-.81-11.61-3.37-16.79-9.57-19.42-22.41-36.96-35.18-54.39-6.66-9.09-14.65-18.94-26.24-19.88-9.65-.78-18.84,4.95-27.14,10.42-40.78,26.91-81.57,53.82-122.35,80.73-26.86,17.67-45.58,38.46-70.84,57.23-1.37,1.02-2.82,2.13-3.41,3.7-.8,2.1.16,4.32,1.12,6.26,15.93,32.23,41.28,104.49,86.95,79.22,21.73-12.02,43.11-24.97,64.22-38.08,43.58-27.07,93.61-57.39,127.68-96.35h-.02Z"/><path class="cls-11" d="M247.69,26.23s-11.93-26.1-59.93,4.9S24.3,155.38,24.3,155.38c0,0,2.43,81.63,54.94,54.19,52.51-27.44,168.38-96.53,168.45-111.48.07-14.95-11.99-87.59-53.46-48.77-41.47,38.82-152.47,92.81-132.47,107.81,20,15,70.05,11.22,114.53-27.39s32.46-44.47,12.97-43.04c-19.49,1.43-74.38,47.16-74.38,47.16"/><line class="cls-10" x1="74.78" y1="133.69" x2="148.34" y2="83.7"/><path class="cls-10" d="M169.72,43.4s38.21-31.06,59.37-27.42"/><line class="cls-10" x1="109.12" y1="193.29" x2="148.34" y2="170.54"/><line class="cls-10" x1="187.17" y1="146.57" x2="241.18" y2="107.45"/><path class="cls-12" d="M142.99,86.81l32.42-22.41-32.42,22.41Z"/><path class="cls-12" d="M78.37,130.86s-15.04,11.66-16.58,15.72"/><path class="cls-12" d="M111.56,191.87l-19.25,10.72,19.25-10.72Z"/><path class="cls-12" d="M144.67,172.67l11.77-7-11.77,7Z"/><path class="cls-12" d="M189.26,145.06l-13.84,8.95,13.84-8.95Z"/><path class="cls-12" d="M236.31,110.98s11.81-9.43,11.38-12.89"/><path class="cls-12" d="M224.57,15.69s12.52.63,16.6,3.78"/><path class="cls-12" d="M172.61,41.15l-17.8,12.98,17.8-12.98Z"/><polyline class="cls-27" points="86.76 64.21 180.72 199.35 199.23 189.21 104.05 54.13"/><g class="cls-22"><g class="cls-3"><path class="cls-14" d="M88.36,237.64c21.73-12.02,43.11-24.97,64.22-38.08,43.58-27.07,93.61-57.39,127.68-96.35,3.6-3.51,7.3-7.32,8.58-12.07.23-.85.21-1.69.29-2.54-20.86,19.01-42.86,36.77-66.89,51.51-8.07,4.95-16.56,9.63-25.75,11.35-3.37.63-6.84.86-10.07,2.08-2.66,1-5.04,2.62-7.4,4.23-9.03,6.15-18.06,12.3-27.09,18.45-2.4,1.64-4.83,3.29-6.88,5.35-1.99,2-3.57,4.34-5.26,6.59-11.36,15.15-27.27,26.35-43.03,36.98-8.68,5.86-17.59,11.72-27.53,14.8-2.46.76-4.99,1.31-7.53,1.66,8.04,2.2,16.85,1.47,26.66-3.96Z"/></g></g></g></g></g></g></g><g class="cls-18"><g class="cls-1"><g class="cls-2"><g class="cls-16"><g class="cls-19"><path class="cls-24" d="M107.4,473.6c2.1.1,4.1,1.3,6.2,1.1,2.9-.3,5-3,7.7-4.2,3-1.3,6.6-.4,9.8-1,6.9-1.3,10.8-8.7,17-11.9,5.1-2.7,11.4-2.3,16.5-5,3.7-1.9,6.4-5.3,9.4-8.2,4.9-4.6,10.8-7.9,16.6-11.2,7.8-4.4,15.7-8.9,23.5-13.3,2.1-1.2,4.3-2.4,6.5-3.5,2.8-1.3,5.8-2.4,8.1-4.5,2.8-2.4,4.6-6.1,7.9-7.6,3.7-1.7,8.4-.4,11.8-2.8,3.1-2.2,3.9-6.9,7.2-8.9,2.4-1.4,5.9-1.2,7.5-3.5,1-1.4.9-3.2,1.5-4.8.7-1.7,2.2-2.9,3.7-4,6.9-5.4,13.5-11.4,19.6-17.7,8.1-8.5,15.6-17.9,20.5-28.5,1.6-3.5,3-7.2,3.1-11.1.2-5-1.6-9.8-3.7-14.4-12.3-26.6-35.7-46.6-61.2-61-6.3-3.6-13.1-6.9-20.4-7.1-3.8,0-7.6.7-11.3,1.6-20.2,4.5-40.6,10.1-58.5,20.5-3.2,1.8-6.2,3.8-9,6.2-2.1,1.8-4.1,4-6.3,5.6-4.3,3.2-9.6,4.8-14.5,7-16.8,7.5-29.4,22.1-45.5,31.1-3.1,1.8-6.4,3.3-9.4,5.4-2.9,2.1-5.4,4.6-7.9,7.2-7.1,7.3-14.3,14.6-21.4,21.8-5,5.1-10.1,10.5-11.4,17.5-1.1,6.2,1.1,12.5,3.4,18.5,5.4,14.6,11,29.3,19.6,42.3,4.6,7,10.1,13.4,14.1,20.8,4.3,7.9,6.8,20.6,14.7,25.9,3,2.1,7.5,3,11,3.4,4.9.5,9.1-2.2,13.7-1.9l-.1.2Z"/><path class="cls-4" d="M304.9,334.9c3.6-3.5,7.2-7.4,8.4-12.3,1.4-6-1.2-12.1-3.9-17.5-10.3-20.5-24-39-37.5-57.5-7.1-9.6-15.5-20.1-27.4-21.4-9.9-1.1-19.1,4.6-27.4,10-40.9,26.8-81.8,53.5-122.7,80.3-26.9,17.6-45.5,38.6-70.7,57.4-1.4,1-2.8,2.1-3.4,3.8-.8,2.2.3,4.5,1.3,6.5,17.2,33.9,45.2,109.7,91.2,84.8,21.9-11.9,43.3-24.7,64.5-37.7,43.8-26.8,94-56.9,127.7-96.4h-.1Z"/><path class="cls-7" d="M246.8,299.1c-8.1-16.7-15.8-32.5-17.5-49.6-.7-6.9-.3-13.9,1.1-20.8-4.6,2-9,4.8-13.2,7.5-.8.6-1.7,1.1-2.5,1.6-.2,4.4-.2,8.8.2,13.2,2.1,19.7,10.6,37.3,18.9,54.4,2.1,4.4,4.2,8.8,6.2,13.2,8.8,19.4,14.4,37.2,17,54.5.3,1.9.4,3.6.6,5.4,4.5-3.4,8.9-6.9,13.2-10.5-2.9-17.7-8.6-35.8-17.5-55.3-2.1-4.5-4.2-9-6.4-13.5l-.1-.1Z"/><path class="cls-7" d="M164.4,317.6l-.8-2.7c-3.8-12.4-7.4-24.2-8.3-36.3v-2c-4.6,3-9.2,6-13.7,9,1.6,11.6,4.8,22.8,8.1,33.6l.8,2.7c8.6,28.3,16.1,57.3,22.3,86.1,1.6,7.5,3.1,15.4,4.2,23.4h.1c4.4-2.7,8.9-5.4,13.4-8.2-1.1-6.4-2.3-12.6-3.6-18.2-6.3-29.2-14-58.6-22.6-87.2l.1-.2Z"/><path class="cls-7" d="M101.7,375.8c-3.6-10.7-6.9-20.8-9.1-31.4-1.6-8.3-2.1-16.7-2.1-25.2-5,3.4-9.8,6.8-14.3,10.4.4,5.9,1,11.8,2.2,17.6,2.3,11.4,6,22.4,9.5,33.1,1.3,3.9,2.6,7.7,3.8,11.6,8,25.5,13.2,51.9,15.4,78.5v.8c1.9-.7,3.7-1.3,5.6-2.4,2.8-1.5,5.5-3.1,8.2-4.6-2.5-26-7.6-51.8-15.4-76.7-1.2-3.9-2.6-7.9-3.9-11.8l.1.1Z"/><g class="cls-22"><g class="cls-5"><path class="cls-13" d="M112.7,468.9c21.9-11.9,43.3-24.7,64.5-37.7,43.8-26.9,94-56.9,127.7-96.4,3.6-3.5,7.2-7.4,8.4-12.3.2-.9.2-1.8.2-2.6-20.8,19.1-42.7,36.9-66.9,51.6-8.1,4.9-16.6,9.5-26,11-3.4.6-7,.7-10.2,1.9-2.7,1-5.1,2.6-7.4,4.2-9.1,6.1-18.1,12.2-27.1,18.4-2.4,1.6-4.8,3.3-6.9,5.4-2,2-3.5,4.4-5.2,6.7-11.2,15.4-27.1,26.6-42.9,37.2-8.7,5.8-17.6,11.7-27.7,14.6-2.5.7-5.1,1.2-7.6,1.5,8.3,2.5,17.3,2,27.1-3.3v-.2Z"/></g></g><g class="cls-17"><g class="cls-6"><path class="cls-21" d="M104.2,326.7c4.1-2.3,8.7-4.5,13.3-3.9,1.3.2,2.7.7,3.3,1.8,1.2,2-.4,4.4-1.9,6.2-10.8,12.2-23,23.9-28.5,39.2-2.2,6.3-3.2,13.1-2.9,19.7.2,4.1.9,8.3.8,12.4s-1.2,8.4-4,11.5c-3.5,3.8-9,4.9-14.1,4.7-13.6-.6-25.5-9.7-33.7-20.6-2.7-3.6-7.1-10-4.8-14.6,2.8-5.6,10.8-11.1,15.3-15.3,11.1-10.2,23-19.6,35.6-27.9,7-4.7,14.2-9.1,21.6-13.1v-.1Z"/></g></g><g class="cls-17"><g class="cls-8"><path class="cls-21" d="M222.9,252.3c2.3-1.5,4.7-2.9,7.3-3.9,9.4-3.6,20.3-.1,28,6.4,7.7,6.5,12.6,15.6,16.9,24.7,3,6.5,5.8,13.2,7,20.2.7,3.9.8,8.3-1.8,11.2-2.7,3.1-7.3,3.5-11.3,2.7-9.9-2.2-17.1-10.6-25.8-15.9-5.9-3.7-12.8-5.9-19.7-6.6-5.4-.5-10.8,0-16.1-.4-7.2-.6-24.2-7.4-17-17.4,3-4.2,9.8-6.8,14.1-9.5,6.2-3.8,12.4-7.7,18.6-11.5h-.2Z"/></g></g></g></g></g></g></g></g></svg>