<?xml version="1.0" encoding="UTF-8"?><svg id="Layer_2" xmlns="http://www.w3.org/2000/svg" xmlns:xlink="http://www.w3.org/1999/xlink" viewBox="0 0 250 211.7"><defs><style>.cls-1{filter:url(#drop-shadow-2);}.cls-2,.cls-3{fill:#ffc2b6;}.cls-4{fill:#323437;}.cls-5{fill:#434448;}.cls-6{filter:url(#drop-shadow-1);}.cls-7{fill:#a5b743;}.cls-8{fill:#ffa899;}.cls-3{opacity:.6;}.cls-9{fill:#bfdb58;}.cls-10{fill:#ffb5a6;}</style><filter id="drop-shadow-1" filterUnits="userSpaceOnUse"><feOffset dx="3.77" dy="3.77"/><feGaussianBlur result="blur" stdDeviation="0"/><feFlood flood-color="#000" flood-opacity=".15"/><feComposite in2="blur" operator="in"/><feComposite in="SourceGraphic"/></filter><filter id="drop-shadow-2" filterUnits="userSpaceOnUse"><feOffset dx="1.78" dy="1.78"/><feGaussianBlur result="blur-2" stdDeviation="0"/><feFlood flood-color="#000" flood-opacity=".15"/><feComposite in2="blur-2" operator="in"/><feComposite in="SourceGraphic"/></filter></defs><g id="Layer_1-2"><g class="cls-6"><path class="cls-4" d="M242.27,0H7.73C3.52,0,0,3.45,0,7.57v196.55c0,4.13,3.52,7.57,7.73,7.57h234.54c2.28,0,4-.81,5.24-2.03.08-.06.14-.13.21-.2.07-.07.14-.14.2-.21,1.24-1.21,2.07-2.91,2.07-5.14V7.57c0-4.13-3.52-7.57-7.73-7.57Z"/><path class="cls-5" d="M231.31,0H7.56C3.54,0,.19,3.35.19,7.37v191.33c0,4.02,3.35,7.37,7.37,7.37h223.75c2.17,0,3.82-.79,5-1.98.07-.06.14-.13.2-.19.06-.07.13-.13.19-.2,1.19-1.18,1.98-2.83,1.98-5V7.37c0-4.02-3.35-7.37-7.37-7.37Z"/><path class="cls-4" d="M184.46,43.15H54.41c-2.34,0-4.29,1.95-4.29,4.29v111.21c0,2.34,1.95,4.29,4.29,4.29h130.05c1.26,0,2.22-.46,2.91-1.15.04-.03.08-.08.12-.11.04-.04.08-.08.11-.12.69-.69,1.15-1.64,1.15-2.91V47.43c0-2.34-1.95-4.29-4.29-4.29Z"/><g class="cls-1"><path class="cls-9" d="M103.11,60.24c-1.77-11.32-8.18-19.14-16.7-24.2-1.81-3.28-5.23-5.55-10.29-5.19-.56.04-1.12.1-1.67.15-5.81-1.66-11.97-2.5-17.99-2.61-5.9-.11-9.84,3.93-11.85,9.02-1.62,4.09-2.63,8.28-3.07,12.39-1.73,1.16-3.36,2.37-4.87,3.56-8.45,6.67-15.13,18-12.69,29.03,3.46,15.62,21.49,19.01,34.93,19.73,5.85.31,9.52-2.84,11.04-6.99,1.77.48,3.58.87,5.47,1.07.53.06,1.04.05,1.55.07.68.28,1.37.54,2.05.77,21.02,7.05,26.3-22.65,24.08-36.81Z"/><path class="cls-7" d="M103.11,60.24c-1.77-11.32-8.18-19.14-16.7-24.2-1.81-3.28-5.23-5.55-10.29-5.19-.56.04-1.12.1-1.67.15-1.14-.33-2.31-.59-3.47-.86.6.58,1.12,1.24,1.52,1.97,6.89,4.09,12.07,10.41,13.5,19.56,1.79,11.45-2.48,35.45-19.47,29.75-.55-.18-1.1-.39-1.65-.62-.42-.01-.83-.01-1.25-.06-1.53-.16-2.99-.48-4.42-.87-1.23,3.35-4.2,5.9-8.92,5.65-9.42-.51-21.61-2.64-26.52-11.43-.42,2.73-.39,5.52.23,8.29,3.46,15.62,21.49,19.01,34.93,19.73,5.85.31,9.52-2.84,11.04-6.99,1.77.48,3.58.87,5.47,1.07.53.06,1.04.05,1.55.07.68.28,1.37.54,2.05.77,21.02,7.05,26.3-22.65,24.08-36.81Z"/></g><path class="cls-8" d="M136.84,178.27s4.28-41.51,33.07-57.91c28.79-16.39,43.07-9.68,51.9,6.71,8.83,16.39-20.51,46.13-28.89,48.99-8.37,2.86-36.99,13.9-56.09,2.2Z"/><path class="cls-10" d="M143.67,188.36s-13.24-44.67,5.09-75.37c18.33-30.71,33.49-30.71,47.86-18.15,14.37,12.56,1.02,57.23-5.09,64.21-6.11,6.98-26.47,32.1-47.86,29.31Z"/><path class="cls-2" d="M153.48,105.66s-37.41-5.24-37.41,19.88.76,55.83,27.6,62.81c26.84,6.98,59.38-29.31,59.38-29.31,0,0-12.17-53.73-49.57-53.38Z"/><path class="cls-8" d="M158.63,106.92s-15.15-20.09-26.98-8.25c-11.83,11.83-25.94,26.66-16.59,42.59,9.35,15.93,41.78,14.16,41.78,14.16,0,0,19.58-31.04,1.8-48.49Z"/><path class="cls-3" d="M143.63,116.5s-27.55-3.86-27.55,14.65.56,41.13,20.33,46.27c19.77,5.14,43.74-21.59,43.74-21.59,0,0-8.96-39.58-36.52-39.32Z"/></g></g></svg>